<svg width="32" height="32" viewBox="0 0 32 32" fill="none" xmlns="http://www.w3.org/2000/svg">
<path d="M12.7573 4H7C6.20435 4 5.44129 4.31607 4.87868 4.87868C4.31607 5.44129 4 6.20435 4 7V12.7573C4 13.5533 4.316 14.3173 4.87867 14.8787L17.6533 27.6533C18.5853 28.5853 20.0267 28.816 21.1293 28.0933C23.9048 26.2755 26.2755 23.9048 28.0933 21.1293C28.816 20.0267 28.5853 18.5853 27.6533 17.6533L14.88 4.88C14.6014 4.60103 14.2705 4.37971 13.9063 4.22871C13.542 4.07772 13.1516 4 12.7573 4Z" stroke="#2E353A" stroke-width="1.5" stroke-linecap="round" stroke-linejoin="round"/>
<path d="M8 8H8.01067V8.01067H8V8Z" stroke="#2E353A" stroke-width="1.5" stroke-linecap="round" stroke-linejoin="round"/>
</svg>
