<svg width="24" height="24" viewBox="0 0 24 24" fill="none" xmlns="http://www.w3.org/2000/svg">
<path d="M7.498 15.248H4.372C3.346 15.248 2.427 14.554 2.318 13.533C2.27263 13.1062 2.24993 12.6773 2.25 12.248C2.25 9.40005 3.242 6.78405 4.899 4.72705C5.287 4.24505 5.886 3.99805 6.504 3.99805H10.52C11.0036 3.99775 11.4841 4.07541 11.943 4.22805L15.057 5.26805C15.5159 5.42068 15.9964 5.49834 16.48 5.49805H17.774M7.498 15.248C8.116 15.248 8.489 15.972 8.223 16.53C7.74528 17.5355 7.49826 18.6349 7.5 19.748C7.5 20.3448 7.73705 20.9171 8.15901 21.339C8.58097 21.761 9.15326 21.998 9.75 21.998C9.94891 21.998 10.1397 21.919 10.2803 21.7784C10.421 21.6377 10.5 21.447 10.5 21.248V20.615C10.5 20.042 10.61 19.475 10.822 18.943C11.126 18.183 11.752 17.613 12.475 17.228C13.5849 16.6358 14.5591 15.8183 15.335 14.828C15.833 14.194 16.561 13.748 17.367 13.748H17.751M7.498 15.248H9.7M17.774 5.49805C17.784 5.54805 17.802 5.59805 17.825 5.64605C18.418 6.84605 18.75 8.19605 18.75 9.62305C18.75 11.11 18.39 12.513 17.751 13.748M17.774 5.49805C17.698 5.13305 17.957 4.74805 18.349 4.74805H19.257C20.146 4.74805 20.97 5.26605 21.229 6.11605C21.568 7.22605 21.75 8.40305 21.75 9.62305C21.75 11.176 21.455 12.659 20.919 14.021C20.613 14.795 19.833 15.248 19.001 15.248H17.948C17.476 15.248 17.203 14.692 17.448 14.288C17.5552 14.1116 17.6563 13.9315 17.751 13.748" stroke="#F4F4F4" stroke-width="1.5" stroke-linecap="round" stroke-linejoin="round"/>
</svg>
