<svg width="24" height="25" viewBox="0 0 24 25" fill="none" xmlns="http://www.w3.org/2000/svg">
<mask id="mask0_376_224" style="mask-type:luminance" maskUnits="userSpaceOnUse" x="1" y="1" width="22" height="23">
<path d="M22.25 10.6914H12V14.9414H17.9C17.35 17.6414 15.05 19.1914 12 19.1914C8.4 19.1914 5.5 16.2914 5.5 12.6914C5.5 9.09141 8.4 6.19141 12 6.19141C13.55 6.19141 14.95 6.74141 16.05 7.64141L19.25 4.44141C17.3 2.74141 14.8 1.69141 12 1.69141C5.9 1.69141 1 6.59141 1 12.6914C1 18.7914 5.9 23.6914 12 23.6914C17.5 23.6914 22.5 19.6914 22.5 12.6914C22.5 12.0414 22.4 11.3414 22.25 10.6914Z" fill="white"/>
</mask>
<g mask="url(#mask0_376_224)">
<path d="M0 19.1914V6.19141L8.5 12.6914L0 19.1914Z" fill="#FBBC05"/>
</g>
<mask id="mask1_376_224" style="mask-type:luminance" maskUnits="userSpaceOnUse" x="1" y="1" width="22" height="23">
<path d="M22.25 10.6914H12V14.9414H17.9C17.35 17.6414 15.05 19.1914 12 19.1914C8.4 19.1914 5.5 16.2914 5.5 12.6914C5.5 9.09141 8.4 6.19141 12 6.19141C13.55 6.19141 14.95 6.74141 16.05 7.64141L19.25 4.44141C17.3 2.74141 14.8 1.69141 12 1.69141C5.9 1.69141 1 6.59141 1 12.6914C1 18.7914 5.9 23.6914 12 23.6914C17.5 23.6914 22.5 19.6914 22.5 12.6914C22.5 12.0414 22.4 11.3414 22.25 10.6914Z" fill="white"/>
</mask>
<g mask="url(#mask1_376_224)">
<path d="M0 6.19141L8.5 12.6914L12 9.64141L24 7.69141V0.691406H0V6.19141Z" fill="#EA4335"/>
</g>
<mask id="mask2_376_224" style="mask-type:luminance" maskUnits="userSpaceOnUse" x="1" y="1" width="22" height="23">
<path d="M22.25 10.6914H12V14.9414H17.9C17.35 17.6414 15.05 19.1914 12 19.1914C8.4 19.1914 5.5 16.2914 5.5 12.6914C5.5 9.09141 8.4 6.19141 12 6.19141C13.55 6.19141 14.95 6.74141 16.05 7.64141L19.25 4.44141C17.3 2.74141 14.8 1.69141 12 1.69141C5.9 1.69141 1 6.59141 1 12.6914C1 18.7914 5.9 23.6914 12 23.6914C17.5 23.6914 22.5 19.6914 22.5 12.6914C22.5 12.0414 22.4 11.3414 22.25 10.6914Z" fill="white"/>
</mask>
<g mask="url(#mask2_376_224)">
<path d="M0 19.1914L15 7.69141L18.95 8.19141L24 0.691406V24.6914H0V19.1914Z" fill="#34A853"/>
</g>
<mask id="mask3_376_224" style="mask-type:luminance" maskUnits="userSpaceOnUse" x="1" y="1" width="22" height="23">
<path d="M22.25 10.6914H12V14.9414H17.9C17.35 17.6414 15.05 19.1914 12 19.1914C8.4 19.1914 5.5 16.2914 5.5 12.6914C5.5 9.09141 8.4 6.19141 12 6.19141C13.55 6.19141 14.95 6.74141 16.05 7.64141L19.25 4.44141C17.3 2.74141 14.8 1.69141 12 1.69141C5.9 1.69141 1 6.59141 1 12.6914C1 18.7914 5.9 23.6914 12 23.6914C17.5 23.6914 22.5 19.6914 22.5 12.6914C22.5 12.0414 22.4 11.3414 22.25 10.6914Z" fill="white"/>
</mask>
<g mask="url(#mask3_376_224)">
<path d="M24 24.6914L8.5 12.6914L6.5 11.1914L24 6.19141V24.6914Z" fill="#4285F4"/>
</g>
</svg>
