<svg width="160" height="157" viewBox="0 0 160 157" fill="none" xmlns="http://www.w3.org/2000/svg">
<g clip-path="url(#clip0_476_396)">
<path d="M197.559 185.767L162.084 150.292C175.344 134.391 183.333 113.948 183.333 91.6739C183.333 41.1289 142.212 0.00720215 91.6667 0.00720215C41.1217 0.00720215 0 41.1283 0 91.6739C0 142.219 41.1217 183.341 91.6667 183.341C113.948 183.341 134.397 175.346 150.301 162.079L185.774 197.553C187.402 199.18 189.534 199.993 191.667 199.993C193.799 199.993 195.932 199.18 197.559 197.553C200.814 194.298 200.814 189.022 197.559 185.767ZM52.7778 130.563C52.7778 109.083 70.1894 91.6739 91.6667 91.6739C77.86 91.6739 66.6661 80.4811 66.6661 66.6733C66.6661 52.8655 77.86 41.6739 91.6667 41.6739C105.473 41.6739 116.667 52.8661 116.667 66.6733C116.667 80.4805 105.473 91.6739 91.6667 91.6739C113.143 91.6739 130.555 109.083 130.555 130.563H52.7778Z" fill="#DBDCF7"/>
</g>
<defs>
<clipPath id="clip0_476_396">
<rect width="200" height="200" fill="white"/>
</clipPath>
</defs>
</svg>
