<svg width="24" height="24" viewBox="0 0 24 24" fill="none" xmlns="http://www.w3.org/2000/svg">
<path d="M21.75 6.75002C21.7501 7.37337 21.6206 7.98993 21.3699 8.56063C21.1191 9.13132 20.7525 9.64369 20.2934 10.0653C19.8342 10.4868 19.2924 10.8084 18.7024 11.0096C18.1125 11.2108 17.4871 11.2872 16.866 11.234C15.79 11.143 14.602 11.305 13.916 12.138L6.76402 20.822C6.53841 21.097 6.25772 21.3217 5.94002 21.4817C5.62231 21.6417 5.27463 21.7334 4.91935 21.7509C4.56407 21.7684 4.20907 21.7113 3.87719 21.5833C3.54531 21.4553 3.24391 21.2592 2.99239 21.0077C2.74086 20.7561 2.54479 20.4547 2.41679 20.1228C2.28878 19.791 2.23169 19.436 2.24917 19.0807C2.26666 18.7254 2.35834 18.3777 2.51832 18.06C2.67829 17.7423 2.90301 17.4616 3.17802 17.236L11.862 10.084C12.695 9.39802 12.857 8.21002 12.766 7.13402C12.6989 6.35219 12.8374 5.5664 13.1677 4.85462C13.4981 4.14283 14.0088 3.52981 14.6492 3.07637C15.2896 2.62293 16.0375 2.34484 16.8186 2.2697C17.5997 2.19456 18.3869 2.32498 19.102 2.64802L15.826 5.92402C15.9528 6.47211 16.2309 6.97361 16.6286 7.3714C17.0264 7.76918 17.5279 8.04728 18.076 8.17402L21.352 4.89802C21.608 5.46302 21.75 6.09002 21.75 6.75002Z" stroke="#2E353A" stroke-width="1.5" stroke-linecap="round" stroke-linejoin="round"/>
<path d="M4.86694 19.125H4.87494V19.133H4.86694V19.125Z" stroke="#2E353A" stroke-width="1.5" stroke-linecap="round" stroke-linejoin="round"/>
</svg>
