<svg width="200" height="200" viewBox="0 0 200 200" fill="none" xmlns="http://www.w3.org/2000/svg">
<g clip-path="url(#clip0_476_394)">
<path d="M279.122 75.5434C278.68 79.4788 274.089 82.4394 270.12 82.4394C257.292 82.4394 245.907 89.9688 241.132 101.623C236.258 113.556 239.403 127.47 248.96 136.239C251.971 138.991 252.338 143.6 249.814 146.799C243.246 155.137 235.784 162.67 227.635 169.198C224.447 171.755 219.762 171.399 216.995 168.337C208.65 159.096 193.66 155.661 182.077 160.494C170.027 165.564 162.421 177.778 163.168 190.889C163.414 195.01 160.401 198.59 156.295 199.069C145.836 200.279 135.286 200.315 124.797 199.151C120.743 198.703 117.732 195.207 117.867 191.138C118.321 178.156 110.629 166.157 98.6953 161.269C87.251 156.594 72.3652 160.002 64.0377 169.163C61.2853 172.181 56.6826 172.551 53.4724 170.048C45.0832 163.464 37.4532 155.927 30.8247 147.656C28.2418 144.441 28.6232 139.782 31.659 137.02C41.4056 128.193 44.548 114.159 39.4876 102.086C34.656 90.5767 22.7055 83.1623 9.02573 83.1623C4.5865 83.3052 1.42722 80.3228 0.9368 76.2856C-0.293491 65.7714 -0.306811 55.0525 0.877466 44.4523C1.31945 40.4999 6.04566 37.5647 10.0586 37.5647C22.2526 37.8746 33.9525 30.3307 38.8676 18.3828C43.7585 6.44936 40.6101 -7.45905 31.0366 -16.2393C28.042 -18.9917 27.6593 -23.5895 30.1877 -26.785C36.6891 -35.0712 44.1581 -42.6091 52.3318 -49.1927C55.5407 -51.7768 60.2076 -51.4147 62.989 -48.3487C71.3662 -39.0854 86.3537 -35.6573 97.8901 -40.4997C109.975 -45.5564 117.577 -57.7696 116.835 -70.8836C116.591 -75.0043 119.612 -78.5959 123.703 -79.0633C129.055 -79.6893 134.436 -79.9993 139.833 -79.9993C144.955 -79.9993 150.078 -79.7195 155.202 -79.1492C159.261 -78.7012 162.266 -75.2017 162.129 -71.1318C161.661 -58.1558 169.369 -46.1558 181.288 -41.2771C192.809 -36.5715 207.628 -40.0153 215.961 -49.1625C218.727 -52.174 223.302 -52.5397 226.526 -50.0464C234.9 -43.4797 242.516 -35.9455 249.174 -27.6533C251.759 -24.4444 251.392 -19.7787 248.339 -17.0118C238.595 -8.19165 235.436 5.84874 240.496 17.9093C245.253 29.2639 256.759 36.8878 269.134 36.8878L270.866 36.8418C274.884 36.516 278.576 39.6099 279.061 43.7088C280.298 54.2327 280.311 64.9395 279.122 75.5434ZM140.001 -20.7112C95.4234 -20.7112 59.2885 15.4233 59.2885 59.999C59.2885 104.575 95.4247 140.709 140.001 140.709C184.577 140.709 220.713 104.575 220.713 59.999C220.713 44.8688 216.542 30.717 209.297 18.6153L173.955 53.9578C176.514 59.9905 177.865 66.5306 177.864 73.2802C177.864 86.4972 172.716 98.9222 163.369 108.267C154.025 117.611 141.599 122.758 128.385 122.758C123.974 122.758 119.585 122.172 115.338 121.015C113.478 120.508 111.957 118.975 111.462 117.111C110.956 115.205 111.526 113.252 113.016 111.761C113.016 111.761 130.464 94.1791 136.302 88.3426C136.913 87.7311 136.912 86.2719 136.826 85.7464L136.771 85.3625C136.183 78.9448 135.048 71.241 134.112 68.2804C133.986 68.1556 133.868 68.0503 133.739 67.922C133.605 67.7875 133.481 67.658 133.352 67.5248C130.352 66.5621 122.53 65.4142 116.01 64.8305L116.011 64.8656L115.718 64.7918C115.666 64.7857 115.569 64.7784 115.441 64.7784C114.736 64.7784 113.7 64.9758 112.758 65.9167C106.681 71.993 89.9174 88.6368 89.9174 88.6368C88.4134 90.1359 86.8707 90.4508 85.8427 90.4508C83.4463 90.4508 81.3005 88.7192 80.6248 86.2356C76.01 69.1583 80.9021 50.7889 93.3952 38.2948C102.742 28.9491 115.169 23.8028 128.386 23.8028C135.135 23.8028 141.676 25.1529 147.707 27.7115L183.433 -8.01364C170.89 -16.0395 155.996 -20.7112 140.001 -20.7112Z" fill="#DBDCF7"/>
</g>
<defs>
<clipPath id="clip0_476_394">
<rect width="200" height="200" fill="white" transform="matrix(1 0 0 -1 0 200)"/>
</clipPath>
</defs>
</svg>
