<svg width="32" height="32" viewBox="0 0 32 32" fill="none" xmlns="http://www.w3.org/2000/svg">
<path d="M20.9999 8C20.9999 9.32608 20.4731 10.5979 19.5354 11.5355C18.5977 12.4732 17.326 13 15.9999 13C14.6738 13 13.402 12.4732 12.4644 11.5355C11.5267 10.5979 10.9999 9.32608 10.9999 8C10.9999 6.67392 11.5267 5.40215 12.4644 4.46447C13.402 3.52678 14.6738 3 15.9999 3C17.326 3 18.5977 3.52678 19.5354 4.46447C20.4731 5.40215 20.9999 6.67392 20.9999 8ZM6.00122 26.824C6.04407 24.2005 7.11634 21.6989 8.98679 19.8587C10.8572 18.0186 13.376 16.9873 15.9999 16.9873C18.6238 16.9873 21.1425 18.0186 23.013 19.8587C24.8834 21.6989 25.9557 24.2005 25.9986 26.824C22.8617 28.2624 19.4508 29.0047 15.9999 29C12.4319 29 9.04522 28.2213 6.00122 26.824Z" stroke="black" stroke-width="1.5" stroke-linecap="round" stroke-linejoin="round"/>
</svg>
